<svg xmlns="http://www.w3.org/2000/svg" width="24" height="24" fill="none" xmlns:v="https://vecta.io/nano"><path fill-rule="evenodd" d="M12.315 2l3.808.06c1.064.049 1.791.218 2.427.465a4.9 4.9 0 0 1 1.772 1.153c.509.5.902 1.104 1.153 1.772.247.636.416 1.363.465 2.427L22 12v.08l-.06 4.043c-.049 1.064-.218 1.791-.465 2.427-.251.668-.644 1.272-1.153 1.772-.5.509-1.104.902-1.772 1.153-.636.247-1.363.416-2.427.465L12 22h-.08c-2.643 0-2.987-.012-4.043-.06-1.064-.049-1.791-.218-2.427-.465-.668-.251-1.272-.644-1.772-1.153a4.9 4.9 0 0 1-1.153-1.772c-.247-.636-.416-1.363-.465-2.427L2 12.315v-.63l.06-3.808c.049-1.064.218-1.791.465-2.427a4.9 4.9 0 0 1 1.153-1.772A4.9 4.9 0 0 1 5.45 2.525c.636-.247 1.363-.416 2.427-.465L11.685 2h.63zm-.081 1.802h-.468l-3.807.058c-.975.045-1.504.207-1.857.344-.467.182-.8.398-1.15.748s-.566.683-.748 1.15c-.137.353-.3.882-.344 1.857l-.058 3.807v.468l.058 3.807c.045.975.207 1.504.344 1.857.182.466.399.8.748 1.15s.683.566 1.15.748c.353.137.882.3 1.857.344l4.041.058h.08l3.96-.058c.976-.045 1.505-.207 1.858-.344a3.11 3.11 0 0 0 1.15-.748c.35-.35.566-.683.748-1.15.137-.353.3-.882.344-1.857L20.198 12v-.08l-.058-3.96c-.045-.976-.207-1.505-.344-1.858-.16-.434-.416-.827-.748-1.15a3.1 3.1 0 0 0-1.15-.748c-.353-.137-.882-.3-1.857-.344l-3.807-.058zM12 6.865c.674 0 1.342.133 1.965.391s1.189.636 1.666 1.113.855 1.043 1.113 1.666.391 1.291.391 1.965-.133 1.342-.391 1.965-.636 1.189-1.113 1.666-1.043.855-1.666 1.113-1.291.391-1.965.391c-1.362 0-2.668-.541-3.631-1.504S6.865 13.362 6.865 12s.541-2.668 1.504-3.631S10.638 6.865 12 6.865zm0 1.802c-.884 0-1.732.351-2.357.976S8.667 11.116 8.667 12s.351 1.732.976 2.357 1.473.976 2.357.976 1.732-.351 2.357-.976.976-1.473.976-2.357-.351-1.732-.976-2.357-1.473-.976-2.357-.976zm5.338-3.205a1.2 1.2 0 0 1 1.2 1.2 1.2 1.2 0 0 1-1.2 1.2 1.2 1.2 0 0 1-1.2-1.2 1.2 1.2 0 0 1 1.2-1.2z" fill="#fff" fill-opacity=".4"/></svg>