<svg xmlns="http://www.w3.org/2000/svg" width="24" height="24" fill="none" xmlns:v="https://vecta.io/nano"><path fill-rule="evenodd" d="M4.871 7.621c1.183 0 1.94-.804 1.94-1.798C6.789 4.781 6.055 4 4.894 4s-1.917.781-1.893 1.823c-.023.994.733 1.798 1.871 1.798zM3.096 9.042v11.576h3.598V9.042H3.096zm6.386.001l.095 3.693h.001v7.884h3.598v-6.676c0-.332.047-.663.142-.9.236-.662.828-1.349 1.822-1.349 1.302 0 1.822 1.017 1.822 2.51v6.416h3.598v-6.867c0-3.408-1.776-4.97-4.143-4.97-1.918 0-3.101 1.112-3.575 1.846h-.071l-.166-1.586H9.482z" fill="#fff" fill-opacity=".4"/></svg>