<svg xmlns="http://www.w3.org/2000/svg" width="23" height="24" fill="none" xmlns:v="https://vecta.io/nano"><path d="M4.861 16.783l.53.53-.53-.53zm-3.69 2.63a.75.75 0 1 0 1.061 1.061l-1.061-1.061zm4.702 2.839a.75.75 0 1 0 0 1.5v-1.5zm8.542.375l-.53-.53h0l.53.53zm6.399-6.398l.53.53-.53-.53zm-2.626-2.626l-.53-.53.53.53zm-3.01 1.949a.75.75 0 1 0 1.061 1.061l-1.061-1.061zM10.5 17.808a.75.75 0 1 0 0 1.5v-1.5zm10.313-4.205l.53-.53-.53.53zM8.194 12.188l-.192-.725h0l.192.725zm.34-.09l.192.725-.192-.725zm1.948-9.477l-.194-.724h0l.194.724zm4.789-1.283l-.194-.724h0l.194.724zm.052 8.942l-.192-.725h0l.192.725zm-.342.091l.192.725h0l-.192-.725zm-.695-2.605l.195.724-.195-.724zM7.505 9.579l.192.725h0l-.192-.725zm6.522 5.282H7.69v1.5h6.337v-1.5zm-9.696 1.391l-3.16 3.16 1.061 1.061 3.16-3.16-1.061-1.061zm9.18 7.499c.519 0 1.038-.199 1.434-.594l-1.061-1.061c-.104.104-.237.155-.373.155v1.5zm1.434-.594l6.399-6.398-1.061-1.061-6.399 6.398 1.061 1.061zm2.712-10.085l-2.479 2.479 1.061 1.061 2.479-2.479-1.061-1.061zm-3.63 4.735H10.5v1.5h3.527v-1.5zm7.316-4.735c-1.018-1.018-2.668-1.018-3.686 0l1.061 1.061c.432-.432 1.133-.432 1.565 0l1.061-1.061zm0 3.686c1.018-1.018 1.018-2.668 0-3.686l-1.061 1.061c.432.432.432 1.133 0 1.565l1.061 1.061zM7.69 14.861a4.75 4.75 0 0 0-3.359 1.391l1.061 1.061a3.25 3.25 0 0 1 2.298-.952v-1.5zm7.061 2.223c0 .4-.324.723-.723.723v1.5c1.228 0 2.223-.995 2.223-2.223h-1.5zm-.723-.723c.399 0 .723.324.723.723h1.5c0-1.228-.995-2.223-2.223-2.223v1.5zm-5.641-3.448l.34-.09-.383-1.45-.34.09.383 1.45zm2.105-2.382V8.988h-1.5v1.543h1.5zm0-1.543V3.587h-1.5v5.402h1.5zm.185-5.643l4.789-1.283-.388-1.449-4.789 1.283.388 1.449zm5.104-1.042V7.16h1.5V2.303h-1.5zm0 4.857v1.552h1.5V7.16h-1.5zm-.648 2.394l-.342.09.383 1.45.342-.091-.383-1.45zm-.651-1.065l2.244-.604-.39-1.448-2.244.604.39 1.448zm-4.932-.225l-2.236.591.383 1.45 2.236-.591-.383-1.45zm4.489.803a.6.6 0 0 1 .443-.577l-.39-1.448a2.1 2.1 0 0 0-1.553 2.026h1.5zm.751.578a.6.6 0 0 1-.751-.578h-1.5a2.1 2.1 0 0 0 2.634 2.028l-.383-1.45zm.991-.932a.87.87 0 0 1-.648.842l.383 1.45a2.37 2.37 0 0 0 1.765-2.292h-1.5zm-.315-6.65a.25.25 0 0 1 .315.241h1.5a1.75 1.75 0 0 0-2.203-1.69l.388 1.449zm-4.974 1.525a.25.25 0 0 1 .185-.241l-.388-1.449a1.75 1.75 0 0 0-1.297 1.69h1.5zm-1.765 9.237a2.37 2.37 0 0 0 1.765-2.292h-1.5a.87.87 0 0 1-.648.842l.383 1.45zm-2.976-1.94a2.1 2.1 0 0 0 2.636 2.03l-.383-1.45a.6.6 0 0 1-.752-.579h-1.5zm1.5 0a.6.6 0 0 1 .446-.579l-.383-1.45a2.1 2.1 0 0 0-1.563 2.03h1.5zM5.872 23.751h7.638v-1.5H5.872v1.5z" fill="#75a5ff"/></svg>