<svg width="44" height="44" viewBox="0 0 44 44" fill="none" xmlns="http://www.w3.org/2000/svg">
<rect width="44" height="44" rx="22" fill="white"/>
<path fill-rule="evenodd" clip-rule="evenodd" d="M22.2342 16.6343C22.5466 16.3219 23.0531 16.3219 23.3655 16.6343L28.1655 21.4343C28.478 21.7468 28.478 22.2533 28.1655 22.5657L23.3655 27.3657C23.0531 27.6781 22.5466 27.6781 22.2342 27.3657C21.9217 27.0533 21.9217 26.5468 22.2342 26.2343L25.6685 22.8L16.3999 22.8C15.958 22.8 15.5999 22.4419 15.5999 22C15.5999 21.5582 15.958 21.2 16.3999 21.2H25.6685L22.2342 17.7657C21.9217 17.4533 21.9217 16.9468 22.2342 16.6343Z" fill="#1A1919"/>
</svg>
