<svg xmlns="http://www.w3.org/2000/svg" width="22" height="24" fill="none" xmlns:v="https://vecta.io/nano"><path d="M6.25 2.25H5.5a.75.75 0 0 0 .75.75v-.75zm4.5 0V3a.75.75 0 0 0 .75-.75h-.75zm4 4.75a.75.75 0 1 0 1.5 0h-1.5zm1.5 8a.75.75 0 1 0-1.5 0h1.5zM17 3.488a.75.75 0 1 0 0 1.5v-1.5zm1.75-.988l.75-.01a.75.75 0 0 0-1.5 0l.75.01zM18 6a.75.75 0 1 0 1.5 0H18zm2.5-1.012a.75.75 0 1 0 0-1.5v1.5zm-4 6v.75a.75.75 0 1 0 0-1.5v.75zM11.996 6.5l.75-.005a.75.75 0 0 0-1.5 0l.75.005zm0 9.004h-.75a.75.75 0 1 0 1.5 0h-.75zM7.5 10.988l-.002-.75a.75.75 0 1 0 0 1.5l.002-.75zm6 11.262h-10v1.5h10v-1.5zM2.25 21V3H.75v18h1.5zm1.25 1.25A1.25 1.25 0 0 1 2.25 21H.75a2.75 2.75 0 0 0 2.75 2.75v-1.5zM14.75 21a1.25 1.25 0 0 1-1.25 1.25v1.5A2.75 2.75 0 0 0 16.25 21h-1.5zM13.5 1.75A1.25 1.25 0 0 1 14.75 3h1.5A2.75 2.75 0 0 0 13.5.25v1.5zM3.5.25A2.75 2.75 0 0 0 .75 3h1.5A1.25 1.25 0 0 1 3.5 1.75V.25zM6.25 3h4.5V1.5h-4.5V3zm4.5-1.25h2.75V.25h-2.75v1.5zm.75.5V1H10v1.25h1.5zm-8-.5h2.75V.25H3.5v1.5zm2.75 0h4.5V.25h-4.5v1.5zm.75.5V1H5.5v1.25H7zm7.75.75v4h1.5V3h-1.5zm1.5 18v-6h-1.5v6h1.5zM17 4.988c1.374 0 2.482-1.111 2.5-2.478L18 2.49c-.007.557-.457.998-1 .998v1.5zm0 0c.547 0 1 .448 1 1.012h1.5c0-1.382-1.114-2.512-2.5-2.512v1.5zm3.5-1.5C19.115 3.488 18 4.618 18 6h1.5c0-.564.453-1.012 1-1.012v-1.5zM18 2.51c.018 1.367 1.126 2.478 2.5 2.478v-1.5c-.543 0-.993-.441-1-.998l-1.5.02zm-1.5 7.729c-2.064-.001-3.742-1.672-3.754-3.743l-1.5.009c.018 2.891 2.361 5.233 5.254 5.234v-1.5zm-3.754 5.266c.001-2.081 1.683-3.765 3.755-3.766v-1.5c-2.903.001-5.253 2.359-5.254 5.265h1.5zm-5.247-3.766c2.068.005 3.747 1.687 3.747 3.766h1.5c-.001-2.902-2.346-5.259-5.244-5.265l-.003 1.5zm3.748-5.243c-.013 2.068-1.687 3.738-3.748 3.743l.003 1.5c2.888-.006 5.226-2.346 5.244-5.234l-1.5-.009z" fill="#75a5ff"/></svg>