<svg xmlns="http://www.w3.org/2000/svg" width="24" height="24" fill="none" xmlns:v="https://vecta.io/nano"><path d="M6.656 12.745l-.692-.29a.75.75 0 0 0 .161.82l.53-.53zm1.026-2.446l-.692-.29.692.29zm13.066-8.584l-.008.75.008-.75zm1.767.02l.75-.008a.75.75 0 0 0-.742-.742l-.008.75zm.02 1.767l-.75.008h0l.75-.008zm-8.584 13.067l.29.692-.29-.692zm-2.446 1.026l-.53.53a.75.75 0 0 0 .82.161l-.29-.692zm-.992-12.439l-.123.74.123-.74zM4.131 7.391l-.53-.53a.75.75 0 0 0 0 1.061l.53-.53zm14.964 6.346l-.74.123h0l.74-.123zm-2.236 6.382l-.53.53a.75.75 0 0 0 1.061 0l-.53-.53zM6.843 18.467a.75.75 0 0 0-1.061-1.061l1.061 1.061zm-4.889 2.768a.75.75 0 1 0 1.061 1.061l-1.061-1.061zm1.768-5.889a.75.75 0 0 0-1.061-1.061l1.061 1.061zm-2.889.768a.75.75 0 0 0 1.061 1.061L.833 16.114zm9.132 5.475a.75.75 0 0 0-1.061-1.061l1.061 1.061zm-2.889.768a.75.75 0 0 0 1.061 1.061l-1.061-1.061zm.272-9.321l1.026-2.446-1.383-.58-1.026 2.446 1.383.58zM20.741 2.464l1.767.02.017-1.5-1.767-.02-.017 1.5zm1.025-.722l.02 1.767 1.5-.017-.02-1.767-1.5.017zm-8.105 14.133l-2.446 1.026.58 1.383 2.446-1.026-.58-1.383zm-1.626 1.187l-4.849-4.849-1.061 1.061 4.849 4.849 1.061-1.061zm9.75-13.554a13.25 13.25 0 0 1-8.124 12.367l.58 1.383a14.75 14.75 0 0 0 9.044-13.766l-1.5.017zM8.374 10.589a13.25 13.25 0 0 1 12.367-8.124l.017-1.5a14.75 14.75 0 0 0-13.767 9.044l1.383.58zm2.951-6.059l-.689-.115-.247 1.48.689.115.247-1.48zM3.882 6.58l-.281.281 1.061 1.061.281-.281L3.882 6.58zm-.281 1.342l3.536 3.536 1.061-1.061-3.536-3.536-1.061 1.061zm7.035-3.506A7.75 7.75 0 0 0 3.882 6.58L4.943 7.64a6.25 6.25 0 0 1 5.447-1.746l.247-1.48zm7.604 8.756l.115.689 1.48-.247-.115-.689-1.48.247zm-1.631 6.136l-.281.281 1.061 1.061.281-.281-1.061-1.061zm.779.281l-3.535-3.535-1.061 1.061 3.536 3.535 1.061-1.061zm.966-5.728a6.25 6.25 0 0 1-1.746 5.447l1.061 1.061a7.75 7.75 0 0 0 2.165-6.754l-1.48.247zM12.914 3.679l7.657 7.657 1.061-1.061-7.657-7.657-1.061 1.061zM5.783 17.407l-3.828 3.828 1.061 1.061 3.828-3.828-1.061-1.061zm-3.121-3.121L.833 16.114l1.061 1.061 1.828-1.828-1.061-1.061zm6.243 6.243l-1.828 1.828 1.061 1.061 1.828-1.828-1.061-1.061z" fill="#75a5ff"/></svg>