<svg xmlns="http://www.w3.org/2000/svg" width="24" height="24" fill="none" xmlns:v="https://vecta.io/nano"><path d="M18.451 10.794l.696.023V7.532l-.278-.02a3.97 3.97 0 0 1-3.658-3.543l-.028-.269h-2.861l-.025 11.471c0 1.185-1.055 2.15-2.281 2.15a2.18 2.18 0 0 1-2.181-2.181 2.18 2.18 0 0 1 2.181-2.181c.055 0 .101.006.166.015h0 .001l.098.013.336.04v-3.016l-.281-.018-.062-.004h0l-.257-.012a5.16 5.16 0 0 0-4.769 3.186 5.16 5.16 0 0 0 1.119 5.625 5.16 5.16 0 0 0 5.625 1.119 5.16 5.16 0 0 0 3.186-4.769V9.413a4.57 4.57 0 0 0 3.274 1.38z" fill="#fff" fill-opacity=".4"/></svg>