<svg xmlns="http://www.w3.org/2000/svg" width="24" height="24" fill="none" xmlns:v="https://vecta.io/nano"><path fill-rule="evenodd" d="M20.963 6.075a2.52 2.52 0 0 1 .651 1.124c.662 2.667.509 6.878.013 9.647-.115.425-.339.813-.651 1.124s-.699.536-1.124.651c-1.556.424-7.821.424-7.821.424s-6.264 0-7.821-.424a2.52 2.52 0 0 1-1.775-1.775c-.666-2.655-.484-6.869-.013-9.634a2.52 2.52 0 0 1 1.775-1.775C5.754 5.013 12.018 5 12.018 5s6.264 0 7.821.424a2.52 2.52 0 0 1 1.124.651zm-5.742 5.948l-5.197 3.01v-6.02l5.197 3.01z" fill="#fff" fill-opacity=".4"/></svg>